<mxfile host="app.diagrams.net" modified="2022-10-24T09:01:39.109Z" agent="5.0 (X11)" etag="mzFrHgG1q6lDpJCi5gzR" version="20.4.2" type="github">
  <diagram id="_ZoFlNFy4GzhAN3HApDf" name="Page-1">
    <mxGraphModel dx="2177" dy="1211" grid="1" gridSize="10" guides="1" tooltips="1" connect="1" arrows="1" fold="1" page="1" pageScale="1" pageWidth="1100" pageHeight="850" math="0" shadow="0">
      <root>
        <mxCell id="0" />
        <mxCell id="1" parent="0" />
        <mxCell id="sMofJkkiWjKo1fz6Bjdi-1" value="" style="endArrow=classic;html=1;rounded=0;" edge="1" parent="1" target="sMofJkkiWjKo1fz6Bjdi-2">
          <mxGeometry width="50" height="50" relative="1" as="geometry">
            <mxPoint x="520" y="40" as="sourcePoint" />
            <mxPoint x="520" y="80" as="targetPoint" />
          </mxGeometry>
        </mxCell>
        <mxCell id="sMofJkkiWjKo1fz6Bjdi-4" style="edgeStyle=orthogonalEdgeStyle;rounded=0;orthogonalLoop=1;jettySize=auto;html=1;entryX=0.5;entryY=0;entryDx=0;entryDy=0;" edge="1" parent="1" source="sMofJkkiWjKo1fz6Bjdi-2" target="sMofJkkiWjKo1fz6Bjdi-3">
          <mxGeometry relative="1" as="geometry" />
        </mxCell>
        <mxCell id="sMofJkkiWjKo1fz6Bjdi-2" value="1" style="ellipse;whiteSpace=wrap;html=1;aspect=fixed;" vertex="1" parent="1">
          <mxGeometry x="480" y="120" width="80" height="80" as="geometry" />
        </mxCell>
        <mxCell id="sMofJkkiWjKo1fz6Bjdi-6" style="edgeStyle=orthogonalEdgeStyle;rounded=0;orthogonalLoop=1;jettySize=auto;html=1;exitX=0.5;exitY=1;exitDx=0;exitDy=0;entryX=0.5;entryY=0;entryDx=0;entryDy=0;" edge="1" parent="1" source="sMofJkkiWjKo1fz6Bjdi-3" target="sMofJkkiWjKo1fz6Bjdi-5">
          <mxGeometry relative="1" as="geometry" />
        </mxCell>
        <mxCell id="sMofJkkiWjKo1fz6Bjdi-3" value="2" style="ellipse;whiteSpace=wrap;html=1;aspect=fixed;" vertex="1" parent="1">
          <mxGeometry x="480" y="260" width="80" height="80" as="geometry" />
        </mxCell>
        <mxCell id="sMofJkkiWjKo1fz6Bjdi-9" style="rounded=0;orthogonalLoop=1;jettySize=auto;html=1;exitX=0;exitY=0.5;exitDx=0;exitDy=0;entryX=1;entryY=0;entryDx=0;entryDy=0;" edge="1" parent="1" source="sMofJkkiWjKo1fz6Bjdi-5" target="sMofJkkiWjKo1fz6Bjdi-7">
          <mxGeometry relative="1" as="geometry" />
        </mxCell>
        <mxCell id="sMofJkkiWjKo1fz6Bjdi-10" style="rounded=0;orthogonalLoop=1;jettySize=auto;html=1;exitX=1;exitY=0.5;exitDx=0;exitDy=0;entryX=0;entryY=0;entryDx=0;entryDy=0;" edge="1" parent="1" source="sMofJkkiWjKo1fz6Bjdi-5" target="sMofJkkiWjKo1fz6Bjdi-8">
          <mxGeometry relative="1" as="geometry" />
        </mxCell>
        <mxCell id="sMofJkkiWjKo1fz6Bjdi-5" value="3" style="ellipse;whiteSpace=wrap;html=1;aspect=fixed;" vertex="1" parent="1">
          <mxGeometry x="480" y="400" width="80" height="80" as="geometry" />
        </mxCell>
        <mxCell id="sMofJkkiWjKo1fz6Bjdi-12" style="edgeStyle=none;rounded=0;orthogonalLoop=1;jettySize=auto;html=1;exitX=0.5;exitY=1;exitDx=0;exitDy=0;" edge="1" parent="1" source="sMofJkkiWjKo1fz6Bjdi-7" target="sMofJkkiWjKo1fz6Bjdi-11">
          <mxGeometry relative="1" as="geometry" />
        </mxCell>
        <mxCell id="sMofJkkiWjKo1fz6Bjdi-7" value="4" style="ellipse;whiteSpace=wrap;html=1;aspect=fixed;" vertex="1" parent="1">
          <mxGeometry x="350" y="480" width="90" height="90" as="geometry" />
        </mxCell>
        <mxCell id="sMofJkkiWjKo1fz6Bjdi-8" value="&lt;div&gt;12&lt;/div&gt;" style="ellipse;whiteSpace=wrap;html=1;aspect=fixed;" vertex="1" parent="1">
          <mxGeometry x="600" y="480" width="80" height="80" as="geometry" />
        </mxCell>
        <mxCell id="sMofJkkiWjKo1fz6Bjdi-14" style="edgeStyle=none;rounded=0;orthogonalLoop=1;jettySize=auto;html=1;entryX=0.5;entryY=0;entryDx=0;entryDy=0;" edge="1" parent="1" source="sMofJkkiWjKo1fz6Bjdi-11" target="sMofJkkiWjKo1fz6Bjdi-13">
          <mxGeometry relative="1" as="geometry" />
        </mxCell>
        <mxCell id="sMofJkkiWjKo1fz6Bjdi-11" value="5" style="ellipse;whiteSpace=wrap;html=1;aspect=fixed;" vertex="1" parent="1">
          <mxGeometry x="350" y="610" width="90" height="90" as="geometry" />
        </mxCell>
        <mxCell id="sMofJkkiWjKo1fz6Bjdi-16" style="edgeStyle=none;rounded=0;orthogonalLoop=1;jettySize=auto;html=1;entryX=0.5;entryY=0;entryDx=0;entryDy=0;" edge="1" parent="1" source="sMofJkkiWjKo1fz6Bjdi-13" target="sMofJkkiWjKo1fz6Bjdi-15">
          <mxGeometry relative="1" as="geometry" />
        </mxCell>
        <mxCell id="sMofJkkiWjKo1fz6Bjdi-18" style="edgeStyle=none;rounded=0;orthogonalLoop=1;jettySize=auto;html=1;exitX=1;exitY=1;exitDx=0;exitDy=0;entryX=0.5;entryY=0;entryDx=0;entryDy=0;" edge="1" parent="1" source="sMofJkkiWjKo1fz6Bjdi-13" target="sMofJkkiWjKo1fz6Bjdi-17">
          <mxGeometry relative="1" as="geometry" />
        </mxCell>
        <mxCell id="sMofJkkiWjKo1fz6Bjdi-13" value="&lt;div&gt;6&lt;/div&gt;&lt;div&gt;&lt;br&gt;&lt;/div&gt;" style="ellipse;whiteSpace=wrap;html=1;aspect=fixed;" vertex="1" parent="1">
          <mxGeometry x="350" y="730" width="90" height="90" as="geometry" />
        </mxCell>
        <mxCell id="sMofJkkiWjKo1fz6Bjdi-20" style="edgeStyle=none;rounded=0;orthogonalLoop=1;jettySize=auto;html=1;exitX=0.5;exitY=1;exitDx=0;exitDy=0;entryX=0.5;entryY=0;entryDx=0;entryDy=0;" edge="1" parent="1" source="sMofJkkiWjKo1fz6Bjdi-15" target="sMofJkkiWjKo1fz6Bjdi-19">
          <mxGeometry relative="1" as="geometry" />
        </mxCell>
        <mxCell id="sMofJkkiWjKo1fz6Bjdi-15" value="7" style="ellipse;whiteSpace=wrap;html=1;aspect=fixed;" vertex="1" parent="1">
          <mxGeometry x="250" y="860" width="90" height="90" as="geometry" />
        </mxCell>
        <mxCell id="sMofJkkiWjKo1fz6Bjdi-17" value="&lt;div&gt;11&lt;/div&gt;&lt;div&gt;&lt;br&gt;&lt;/div&gt;" style="ellipse;whiteSpace=wrap;html=1;aspect=fixed;" vertex="1" parent="1">
          <mxGeometry x="705" y="890" width="90" height="90" as="geometry" />
        </mxCell>
        <mxCell id="sMofJkkiWjKo1fz6Bjdi-23" style="edgeStyle=none;rounded=0;orthogonalLoop=1;jettySize=auto;html=1;exitX=0;exitY=0.5;exitDx=0;exitDy=0;entryX=0.5;entryY=0;entryDx=0;entryDy=0;" edge="1" parent="1" source="sMofJkkiWjKo1fz6Bjdi-19" target="sMofJkkiWjKo1fz6Bjdi-21">
          <mxGeometry relative="1" as="geometry" />
        </mxCell>
        <mxCell id="sMofJkkiWjKo1fz6Bjdi-24" style="edgeStyle=none;rounded=0;orthogonalLoop=1;jettySize=auto;html=1;exitX=1;exitY=0.5;exitDx=0;exitDy=0;entryX=0.5;entryY=0;entryDx=0;entryDy=0;" edge="1" parent="1" source="sMofJkkiWjKo1fz6Bjdi-19" target="sMofJkkiWjKo1fz6Bjdi-22">
          <mxGeometry relative="1" as="geometry" />
        </mxCell>
        <mxCell id="sMofJkkiWjKo1fz6Bjdi-19" value="&lt;div&gt;8&lt;/div&gt;" style="ellipse;whiteSpace=wrap;html=1;aspect=fixed;" vertex="1" parent="1">
          <mxGeometry x="250" y="980" width="90" height="90" as="geometry" />
        </mxCell>
        <mxCell id="sMofJkkiWjKo1fz6Bjdi-21" value="9" style="ellipse;whiteSpace=wrap;html=1;aspect=fixed;" vertex="1" parent="1">
          <mxGeometry x="150" y="1080" width="90" height="90" as="geometry" />
        </mxCell>
        <mxCell id="sMofJkkiWjKo1fz6Bjdi-26" style="edgeStyle=none;rounded=0;orthogonalLoop=1;jettySize=auto;html=1;exitX=1;exitY=0.5;exitDx=0;exitDy=0;entryX=0.5;entryY=1;entryDx=0;entryDy=0;" edge="1" parent="1" source="sMofJkkiWjKo1fz6Bjdi-22" target="sMofJkkiWjKo1fz6Bjdi-17">
          <mxGeometry relative="1" as="geometry">
            <mxPoint x="889.9999999999745" y="1125" as="targetPoint" />
            <Array as="points">
              <mxPoint x="750" y="1120" />
            </Array>
          </mxGeometry>
        </mxCell>
        <mxCell id="sMofJkkiWjKo1fz6Bjdi-22" value="&lt;div&gt;10&lt;/div&gt;" style="ellipse;whiteSpace=wrap;html=1;aspect=fixed;" vertex="1" parent="1">
          <mxGeometry x="340" y="1080" width="90" height="90" as="geometry" />
        </mxCell>
        <mxCell id="sMofJkkiWjKo1fz6Bjdi-28" style="edgeStyle=none;rounded=0;orthogonalLoop=1;jettySize=auto;html=1;exitX=1;exitY=0.5;exitDx=0;exitDy=0;entryX=1;entryY=0;entryDx=0;entryDy=0;" edge="1" parent="1" source="sMofJkkiWjKo1fz6Bjdi-17" target="sMofJkkiWjKo1fz6Bjdi-5">
          <mxGeometry relative="1" as="geometry">
            <mxPoint x="966.8198051534382" y="1093.1801948465627" as="sourcePoint" />
            <Array as="points">
              <mxPoint x="950" y="935" />
              <mxPoint x="940" y="412" />
            </Array>
          </mxGeometry>
        </mxCell>
        <mxCell id="sMofJkkiWjKo1fz6Bjdi-30" value="&lt;span class=&quot;pl-smi&quot; style=&quot;font-size: 14px;&quot;&gt;int&lt;/span&gt; &lt;span class=&quot;pl-s1&quot; style=&quot;font-size: 14px;&quot;&gt;length&lt;/span&gt; = &lt;span class=&quot;pl-s1&quot; style=&quot;font-size: 14px;&quot;&gt;unsorted&lt;/span&gt;.&lt;span class=&quot;pl-s1&quot; style=&quot;font-size: 14px;&quot;&gt;length&lt;/span&gt;;" style="text;whiteSpace=wrap;html=1;fontSize=14;" vertex="1" parent="1">
          <mxGeometry x="620" y="140" width="180" height="40" as="geometry" />
        </mxCell>
        <mxCell id="sMofJkkiWjKo1fz6Bjdi-31" value="i = 1" style="text;html=1;strokeColor=none;fillColor=none;align=center;verticalAlign=middle;whiteSpace=wrap;rounded=0;fontSize=14;" vertex="1" parent="1">
          <mxGeometry x="610" y="280" width="60" height="30" as="geometry" />
        </mxCell>
        <mxCell id="sMofJkkiWjKo1fz6Bjdi-32" value="i &amp;lt; length" style="text;html=1;strokeColor=none;fillColor=none;align=center;verticalAlign=middle;whiteSpace=wrap;rounded=0;fontSize=14;" vertex="1" parent="1">
          <mxGeometry x="390" y="425" width="60" height="30" as="geometry" />
        </mxCell>
        <mxCell id="sMofJkkiWjKo1fz6Bjdi-33" value="i &amp;gt;= length" style="text;html=1;strokeColor=none;fillColor=none;align=center;verticalAlign=middle;whiteSpace=wrap;rounded=0;fontSize=14;" vertex="1" parent="1">
          <mxGeometry x="590" y="425" width="90" height="30" as="geometry" />
        </mxCell>
        <mxCell id="sMofJkkiWjKo1fz6Bjdi-34" value="return unsorted" style="text;html=1;strokeColor=none;fillColor=none;align=center;verticalAlign=middle;whiteSpace=wrap;rounded=0;fontSize=14;" vertex="1" parent="1">
          <mxGeometry x="700" y="500" width="100" height="30" as="geometry" />
        </mxCell>
        <mxCell id="sMofJkkiWjKo1fz6Bjdi-35" value="int j = i" style="text;html=1;strokeColor=none;fillColor=none;align=center;verticalAlign=middle;whiteSpace=wrap;rounded=0;fontSize=14;" vertex="1" parent="1">
          <mxGeometry x="450" y="630" width="60" height="30" as="geometry" />
        </mxCell>
        <mxCell id="sMofJkkiWjKo1fz6Bjdi-36" value=" &lt;span class=&quot;pl-en&quot;&gt;&lt;span data-hydro-click-hmac=&quot;46f9aadb89cd12982957e89c8f3eb2e83d6e021393f2ae7e5418a02db2178a5a&quot; data-hydro-click=&quot;{&amp;quot;event_type&amp;quot;:&amp;quot;code_navigation.click_on_symbol&amp;quot;,&amp;quot;payload&amp;quot;:{&amp;quot;action&amp;quot;:&amp;quot;click_on_symbol&amp;quot;,&amp;quot;repository_id&amp;quot;:14545717,&amp;quot;ref&amp;quot;:&amp;quot;master&amp;quot;,&amp;quot;language&amp;quot;:&amp;quot;Java&amp;quot;,&amp;quot;backend&amp;quot;:&amp;quot;ALEPH_FUZZY&amp;quot;,&amp;quot;code_nav_context&amp;quot;:&amp;quot;BLOB_VIEW&amp;quot;,&amp;quot;retry_backend&amp;quot;:&amp;quot;&amp;quot;,&amp;quot;cross_repo_results_included&amp;quot;:&amp;quot;CROSS_REPO_NOT_ENABLED&amp;quot;,&amp;quot;in_repo_result_count&amp;quot;:11,&amp;quot;cross_repo_result_count&amp;quot;:0,&amp;quot;originating_url&amp;quot;:&amp;quot;https://github.com/phishman3579/java-algorithms-implementation/find-definition?q=sort&amp;amp;blob_path=src%2Fcom%2Fjwetherell%2Falgorithms%2Fsorts%2FInsertionSort.java&amp;amp;ref=master&amp;amp;language=Java&amp;amp;row=27&amp;amp;col=12&amp;amp;code_nav_context=BLOB_VIEW&amp;quot;,&amp;quot;user_id&amp;quot;:65838391}}&quot; class=&quot;pl-token&quot;&gt;sort&lt;/span&gt;&lt;/span&gt;(&lt;span class=&quot;pl-s1&quot;&gt;i&lt;/span&gt;, &lt;span class=&quot;pl-s1&quot;&gt;unsorted&lt;/span&gt;);" style="text;html=1;strokeColor=none;fillColor=none;align=center;verticalAlign=middle;whiteSpace=wrap;rounded=0;fontSize=14;" vertex="1" parent="1">
          <mxGeometry x="250" y="580" width="120" height="30" as="geometry" />
        </mxCell>
        <mxCell id="sMofJkkiWjKo1fz6Bjdi-37" value="j &amp;gt; 0" style="text;html=1;strokeColor=none;fillColor=none;align=center;verticalAlign=middle;whiteSpace=wrap;rounded=0;fontSize=14;" vertex="1" parent="1">
          <mxGeometry x="230" y="810" width="60" height="30" as="geometry" />
        </mxCell>
        <mxCell id="sMofJkkiWjKo1fz6Bjdi-38" value="j &amp;lt;= 0" style="text;html=1;strokeColor=none;fillColor=none;align=center;verticalAlign=middle;whiteSpace=wrap;rounded=0;fontSize=14;" vertex="1" parent="1">
          <mxGeometry x="580" y="810" width="60" height="30" as="geometry" />
        </mxCell>
        <mxCell id="sMofJkkiWjKo1fz6Bjdi-39" value="&lt;table data-tagsearch-path=&quot;src/com/jwetherell/algorithms/sorts/InsertionSort.java&quot; data-tagsearch-lang=&quot;Java&quot; data-paste-markdown-skip=&quot;&quot; data-tab-size=&quot;8&quot; class=&quot;highlight tab-size js-file-line-container js-code-nav-container js-tagsearch-file&quot; data-hpc=&quot;&quot;&gt;&lt;tbody&gt;&lt;tr&gt;&lt;td class=&quot;blob-code blob-code-inner js-file-line&quot; id=&quot;LC35&quot;&gt; &lt;span class=&quot;pl-smi&quot;&gt;T&lt;/span&gt; &lt;span class=&quot;pl-s1&quot;&gt;jthElement&lt;/span&gt; = &lt;span class=&quot;pl-s1&quot;&gt;unsorted&lt;/span&gt;[&lt;span class=&quot;pl-s1&quot;&gt;j&lt;/span&gt;];&lt;/td&gt;&#xa;        &lt;/tr&gt;&#xa;        &lt;tr&gt;&#xa;          &lt;/tr&gt;&lt;/tbody&gt;&lt;/table&gt;            &lt;span class=&quot;pl-smi&quot;&gt;T&lt;/span&gt; &lt;span class=&quot;pl-s1&quot;&gt;jMinusOneElement&lt;/span&gt; = &lt;span class=&quot;pl-s1&quot;&gt;unsorted&lt;/span&gt;[&lt;span class=&quot;pl-s1&quot;&gt;j&lt;/span&gt; - &lt;span class=&quot;pl-c1&quot;&gt;1&lt;/span&gt;];" style="text;html=1;strokeColor=none;fillColor=none;align=center;verticalAlign=middle;whiteSpace=wrap;rounded=0;fontSize=14;" vertex="1" parent="1">
          <mxGeometry x="-30" y="810" width="290" height="130" as="geometry" />
        </mxCell>
        <mxCell id="sMofJkkiWjKo1fz6Bjdi-41" value="&lt;span class=&quot;pl-s1&quot;&gt;jthElement&lt;/span&gt;.&lt;span class=&quot;pl-en&quot;&gt;&lt;span data-hydro-click-hmac=&quot;71dbc3dbd24a756483e0a1a16779842760cdbff4d9fe9b3a48ea8ec8142e9cd3&quot; data-hydro-click=&quot;{&amp;quot;event_type&amp;quot;:&amp;quot;code_navigation.click_on_symbol&amp;quot;,&amp;quot;payload&amp;quot;:{&amp;quot;action&amp;quot;:&amp;quot;click_on_symbol&amp;quot;,&amp;quot;repository_id&amp;quot;:14545717,&amp;quot;ref&amp;quot;:&amp;quot;master&amp;quot;,&amp;quot;language&amp;quot;:&amp;quot;Java&amp;quot;,&amp;quot;backend&amp;quot;:&amp;quot;ALEPH_FUZZY&amp;quot;,&amp;quot;code_nav_context&amp;quot;:&amp;quot;BLOB_VIEW&amp;quot;,&amp;quot;retry_backend&amp;quot;:&amp;quot;&amp;quot;,&amp;quot;cross_repo_results_included&amp;quot;:&amp;quot;CROSS_REPO_NOT_ENABLED&amp;quot;,&amp;quot;in_repo_result_count&amp;quot;:8,&amp;quot;cross_repo_result_count&amp;quot;:0,&amp;quot;originating_url&amp;quot;:&amp;quot;https://github.com/phishman3579/java-algorithms-implementation/find-definition?q=compareTo&amp;amp;blob_path=src%2Fcom%2Fjwetherell%2Falgorithms%2Fsorts%2FInsertionSort.java&amp;amp;ref=master&amp;amp;language=Java&amp;amp;row=36&amp;amp;col=27&amp;amp;code_nav_context=BLOB_VIEW&amp;quot;,&amp;quot;user_id&amp;quot;:65838391}}&quot; class=&quot;pl-token&quot;&gt;compareTo&lt;/span&gt;&lt;/span&gt;(&lt;span class=&quot;pl-s1&quot;&gt;jMinusOneElement&lt;/span&gt;) &amp;lt; &lt;span class=&quot;pl-c1&quot;&gt;0&lt;/span&gt;" style="text;html=1;strokeColor=none;fillColor=none;align=center;verticalAlign=middle;whiteSpace=wrap;rounded=0;fontSize=14;" vertex="1" parent="1">
          <mxGeometry x="-100" y="1030" width="300" height="30" as="geometry" />
        </mxCell>
        <mxCell id="sMofJkkiWjKo1fz6Bjdi-42" value="&lt;span class=&quot;pl-s1&quot;&gt;jthElement&lt;/span&gt;.&lt;span class=&quot;pl-en&quot;&gt;&lt;span data-hydro-click-hmac=&quot;71dbc3dbd24a756483e0a1a16779842760cdbff4d9fe9b3a48ea8ec8142e9cd3&quot; data-hydro-click=&quot;{&amp;quot;event_type&amp;quot;:&amp;quot;code_navigation.click_on_symbol&amp;quot;,&amp;quot;payload&amp;quot;:{&amp;quot;action&amp;quot;:&amp;quot;click_on_symbol&amp;quot;,&amp;quot;repository_id&amp;quot;:14545717,&amp;quot;ref&amp;quot;:&amp;quot;master&amp;quot;,&amp;quot;language&amp;quot;:&amp;quot;Java&amp;quot;,&amp;quot;backend&amp;quot;:&amp;quot;ALEPH_FUZZY&amp;quot;,&amp;quot;code_nav_context&amp;quot;:&amp;quot;BLOB_VIEW&amp;quot;,&amp;quot;retry_backend&amp;quot;:&amp;quot;&amp;quot;,&amp;quot;cross_repo_results_included&amp;quot;:&amp;quot;CROSS_REPO_NOT_ENABLED&amp;quot;,&amp;quot;in_repo_result_count&amp;quot;:8,&amp;quot;cross_repo_result_count&amp;quot;:0,&amp;quot;originating_url&amp;quot;:&amp;quot;https://github.com/phishman3579/java-algorithms-implementation/find-definition?q=compareTo&amp;amp;blob_path=src%2Fcom%2Fjwetherell%2Falgorithms%2Fsorts%2FInsertionSort.java&amp;amp;ref=master&amp;amp;language=Java&amp;amp;row=36&amp;amp;col=27&amp;amp;code_nav_context=BLOB_VIEW&amp;quot;,&amp;quot;user_id&amp;quot;:65838391}}&quot; class=&quot;pl-token&quot;&gt;compareTo&lt;/span&gt;&lt;/span&gt;(&lt;span class=&quot;pl-s1&quot;&gt;jMinusOneElement&lt;/span&gt;) &amp;gt;= &lt;span class=&quot;pl-c1&quot;&gt;0&lt;/span&gt;" style="text;html=1;strokeColor=none;fillColor=none;align=center;verticalAlign=middle;whiteSpace=wrap;rounded=0;fontSize=14;" vertex="1" parent="1">
          <mxGeometry x="375" y="1030" width="310" height="30" as="geometry" />
        </mxCell>
        <mxCell id="sMofJkkiWjKo1fz6Bjdi-43" value="break;" style="text;html=1;strokeColor=none;fillColor=none;align=center;verticalAlign=middle;whiteSpace=wrap;rounded=0;fontSize=14;" vertex="1" parent="1">
          <mxGeometry x="355" y="1180" width="60" height="30" as="geometry" />
        </mxCell>
        <mxCell id="sMofJkkiWjKo1fz6Bjdi-44" value="                &lt;span class=&quot;pl-s1&quot;&gt;unsorted&lt;/span&gt;[&lt;span class=&quot;pl-s1&quot;&gt;j&lt;/span&gt;] = &lt;span class=&quot;pl-s1&quot;&gt;jMinusOneElement&lt;/span&gt;;&lt;br&gt;&lt;table data-tagsearch-path=&quot;src/com/jwetherell/algorithms/sorts/InsertionSort.java&quot; data-tagsearch-lang=&quot;Java&quot; data-paste-markdown-skip=&quot;&quot; data-tab-size=&quot;8&quot; class=&quot;highlight tab-size js-file-line-container js-code-nav-container js-tagsearch-file&quot; data-hpc=&quot;&quot;&gt;&lt;tbody&gt;&lt;tr&gt;&lt;td class=&quot;blob-code blob-code-inner js-file-line&quot; id=&quot;LC38&quot;&gt; &lt;span class=&quot;pl-s1&quot;&gt;unsorted&lt;/span&gt;[&lt;span class=&quot;pl-s1&quot;&gt;j&lt;/span&gt; - &lt;span class=&quot;pl-c1&quot;&gt;1&lt;/span&gt;] = &lt;span class=&quot;pl-s1&quot;&gt;jthElement&lt;/span&gt;;&lt;/td&gt;        &lt;/tr&gt;        &lt;tr&gt;          &lt;/tr&gt;&lt;/tbody&gt;&lt;/table&gt;" style="text;html=1;strokeColor=none;fillColor=none;align=center;verticalAlign=middle;whiteSpace=wrap;rounded=0;fontSize=14;" vertex="1" parent="1">
          <mxGeometry x="-110" y="1100" width="300" height="60" as="geometry" />
        </mxCell>
        <mxCell id="sMofJkkiWjKo1fz6Bjdi-45" value="" style="endArrow=classic;html=1;rounded=0;fontSize=14;exitX=0.5;exitY=1;exitDx=0;exitDy=0;entryX=0;entryY=0.5;entryDx=0;entryDy=0;" edge="1" parent="1" source="sMofJkkiWjKo1fz6Bjdi-21" target="sMofJkkiWjKo1fz6Bjdi-13">
          <mxGeometry width="50" height="50" relative="1" as="geometry">
            <mxPoint x="510" y="960" as="sourcePoint" />
            <mxPoint x="560" y="910" as="targetPoint" />
            <Array as="points">
              <mxPoint x="195" y="1200" />
              <mxPoint x="-160" y="1200" />
              <mxPoint x="-160" y="770" />
            </Array>
          </mxGeometry>
        </mxCell>
        <mxCell id="sMofJkkiWjKo1fz6Bjdi-46" value="  &lt;span class=&quot;pl-k&quot;&gt;public&lt;/span&gt; &lt;span class=&quot;pl-k&quot;&gt;static&lt;/span&gt; &amp;lt;&lt;span class=&quot;pl-s1&quot;&gt;T&lt;/span&gt; &lt;span class=&quot;pl-k&quot;&gt;extends&lt;/span&gt; &lt;span class=&quot;pl-smi&quot;&gt;Comparable&lt;/span&gt;&amp;lt;&lt;span class=&quot;pl-smi&quot;&gt;T&lt;/span&gt;&amp;gt;&amp;gt; &lt;span class=&quot;pl-smi&quot;&gt;T&lt;/span&gt;[] &lt;span class=&quot;pl-en&quot;&gt;&lt;span data-hydro-click-hmac=&quot;17f2f752102b2a478f09d9dce1d1710d6207fbaacfbe581e137f109613efe861&quot; data-hydro-click=&quot;{&amp;quot;event_type&amp;quot;:&amp;quot;code_navigation.click_on_symbol&amp;quot;,&amp;quot;payload&amp;quot;:{&amp;quot;action&amp;quot;:&amp;quot;click_on_symbol&amp;quot;,&amp;quot;repository_id&amp;quot;:14545717,&amp;quot;ref&amp;quot;:&amp;quot;master&amp;quot;,&amp;quot;language&amp;quot;:&amp;quot;Java&amp;quot;,&amp;quot;backend&amp;quot;:&amp;quot;ALEPH_FUZZY&amp;quot;,&amp;quot;code_nav_context&amp;quot;:&amp;quot;BLOB_VIEW&amp;quot;,&amp;quot;retry_backend&amp;quot;:&amp;quot;&amp;quot;,&amp;quot;cross_repo_results_included&amp;quot;:&amp;quot;CROSS_REPO_NOT_ENABLED&amp;quot;,&amp;quot;in_repo_result_count&amp;quot;:11,&amp;quot;cross_repo_result_count&amp;quot;:0,&amp;quot;originating_url&amp;quot;:&amp;quot;https://github.com/phishman3579/java-algorithms-implementation/find-definition?q=sort&amp;amp;blob_path=src%2Fcom%2Fjwetherell%2Falgorithms%2Fsorts%2FInsertionSort.java&amp;amp;ref=master&amp;amp;language=Java&amp;amp;row=24&amp;amp;col=48&amp;amp;code_nav_context=BLOB_VIEW&amp;quot;,&amp;quot;user_id&amp;quot;:65838391}}&quot; class=&quot;pl-token&quot;&gt;sort&lt;/span&gt;&lt;/span&gt;(&lt;span class=&quot;pl-smi&quot;&gt;T&lt;/span&gt;[] &lt;span class=&quot;pl-s1&quot;&gt;unsorted&lt;/span&gt;)" style="text;html=1;strokeColor=none;fillColor=none;align=center;verticalAlign=middle;whiteSpace=wrap;rounded=0;fontSize=14;" vertex="1" parent="1">
          <mxGeometry x="-10" y="90" width="470" height="30" as="geometry" />
        </mxCell>
        <mxCell id="sMofJkkiWjKo1fz6Bjdi-47" value="&lt;span class=&quot;pl-k&quot;&gt;public&lt;/span&gt; &lt;span class=&quot;pl-k&quot;&gt;static&lt;/span&gt; &lt;span class=&quot;pl-k&quot;&gt;final&lt;/span&gt; &lt;span class=&quot;pl-smi&quot;&gt;long&lt;/span&gt; &lt;span class=&quot;pl-en&quot;&gt;&lt;span data-hydro-click-hmac=&quot;9da23863fcbd95c38b16df2179a3b027a4fa1cbe9a969ad6fcad4cc516f4fa57&quot; data-hydro-click=&quot;{&amp;quot;event_type&amp;quot;:&amp;quot;code_navigation.click_on_symbol&amp;quot;,&amp;quot;payload&amp;quot;:{&amp;quot;action&amp;quot;:&amp;quot;click_on_symbol&amp;quot;,&amp;quot;repository_id&amp;quot;:14545717,&amp;quot;ref&amp;quot;:&amp;quot;master&amp;quot;,&amp;quot;language&amp;quot;:&amp;quot;Java&amp;quot;,&amp;quot;backend&amp;quot;:&amp;quot;ALEPH_FUZZY&amp;quot;,&amp;quot;code_nav_context&amp;quot;:&amp;quot;BLOB_VIEW&amp;quot;,&amp;quot;retry_backend&amp;quot;:&amp;quot;&amp;quot;,&amp;quot;cross_repo_results_included&amp;quot;:&amp;quot;CROSS_REPO_NOT_ENABLED&amp;quot;,&amp;quot;in_repo_result_count&amp;quot;:1,&amp;quot;cross_repo_result_count&amp;quot;:0,&amp;quot;originating_url&amp;quot;:&amp;quot;https://github.com/phishman3579/java-algorithms-implementation/find-definition?q=gcdUsingEuclides&amp;amp;blob_path=src%2Fcom%2Fjwetherell%2Falgorithms%2Fmathematics%2FGreatestCommonDivisor.java&amp;amp;ref=master&amp;amp;language=Java&amp;amp;row=34&amp;amp;col=29&amp;amp;code_nav_context=BLOB_VIEW&amp;quot;,&amp;quot;user_id&amp;quot;:65838391}}&quot; class=&quot;pl-token&quot;&gt;gcdUsingEuclides&lt;/span&gt;&lt;/span&gt;(&lt;span class=&quot;pl-smi&quot;&gt;long&lt;/span&gt; &lt;span class=&quot;pl-s1&quot;&gt;x&lt;/span&gt;, &lt;span class=&quot;pl-smi&quot;&gt;long&lt;/span&gt; &lt;span class=&quot;pl-s1&quot;&gt;y&lt;/span&gt;)" style="text;html=1;strokeColor=none;fillColor=none;align=center;verticalAlign=middle;whiteSpace=wrap;rounded=0;fontSize=14;" vertex="1" parent="1">
          <mxGeometry x="-190" y="1340" width="390" height="30" as="geometry" />
        </mxCell>
        <mxCell id="sMofJkkiWjKo1fz6Bjdi-48" value="" style="endArrow=classic;html=1;rounded=0;" edge="1" parent="1" target="sMofJkkiWjKo1fz6Bjdi-49">
          <mxGeometry width="50" height="50" relative="1" as="geometry">
            <mxPoint x="420" y="1360" as="sourcePoint" />
            <mxPoint x="420" y="1400" as="targetPoint" />
          </mxGeometry>
        </mxCell>
        <mxCell id="sMofJkkiWjKo1fz6Bjdi-53" style="edgeStyle=none;rounded=0;orthogonalLoop=1;jettySize=auto;html=1;exitX=0;exitY=1;exitDx=0;exitDy=0;entryX=0.5;entryY=0;entryDx=0;entryDy=0;fontSize=14;" edge="1" parent="1" source="sMofJkkiWjKo1fz6Bjdi-49" target="sMofJkkiWjKo1fz6Bjdi-50">
          <mxGeometry relative="1" as="geometry" />
        </mxCell>
        <mxCell id="sMofJkkiWjKo1fz6Bjdi-54" style="edgeStyle=none;rounded=0;orthogonalLoop=1;jettySize=auto;html=1;exitX=1;exitY=1;exitDx=0;exitDy=0;entryX=0.5;entryY=0;entryDx=0;entryDy=0;fontSize=14;" edge="1" parent="1" source="sMofJkkiWjKo1fz6Bjdi-49" target="sMofJkkiWjKo1fz6Bjdi-51">
          <mxGeometry relative="1" as="geometry" />
        </mxCell>
        <mxCell id="sMofJkkiWjKo1fz6Bjdi-49" value="1" style="ellipse;whiteSpace=wrap;html=1;aspect=fixed;" vertex="1" parent="1">
          <mxGeometry x="380" y="1440" width="80" height="80" as="geometry" />
        </mxCell>
        <mxCell id="sMofJkkiWjKo1fz6Bjdi-55" style="edgeStyle=none;rounded=0;orthogonalLoop=1;jettySize=auto;html=1;exitX=1;exitY=0.5;exitDx=0;exitDy=0;entryX=0;entryY=0.5;entryDx=0;entryDy=0;fontSize=14;" edge="1" parent="1" source="sMofJkkiWjKo1fz6Bjdi-50" target="sMofJkkiWjKo1fz6Bjdi-51">
          <mxGeometry relative="1" as="geometry" />
        </mxCell>
        <mxCell id="sMofJkkiWjKo1fz6Bjdi-50" value="2" style="ellipse;whiteSpace=wrap;html=1;aspect=fixed;" vertex="1" parent="1">
          <mxGeometry x="280" y="1560" width="80" height="80" as="geometry" />
        </mxCell>
        <mxCell id="sMofJkkiWjKo1fz6Bjdi-56" style="edgeStyle=none;rounded=0;orthogonalLoop=1;jettySize=auto;html=1;exitX=0.5;exitY=1;exitDx=0;exitDy=0;fontSize=14;" edge="1" parent="1" source="sMofJkkiWjKo1fz6Bjdi-51" target="sMofJkkiWjKo1fz6Bjdi-52">
          <mxGeometry relative="1" as="geometry" />
        </mxCell>
        <mxCell id="sMofJkkiWjKo1fz6Bjdi-51" value="3" style="ellipse;whiteSpace=wrap;html=1;aspect=fixed;" vertex="1" parent="1">
          <mxGeometry x="480" y="1560" width="80" height="80" as="geometry" />
        </mxCell>
        <mxCell id="sMofJkkiWjKo1fz6Bjdi-64" style="edgeStyle=none;rounded=0;orthogonalLoop=1;jettySize=auto;html=1;exitX=0.5;exitY=1;exitDx=0;exitDy=0;entryX=0.5;entryY=0;entryDx=0;entryDy=0;fontSize=14;" edge="1" parent="1" source="sMofJkkiWjKo1fz6Bjdi-52" target="sMofJkkiWjKo1fz6Bjdi-57">
          <mxGeometry relative="1" as="geometry" />
        </mxCell>
        <mxCell id="sMofJkkiWjKo1fz6Bjdi-52" value="4" style="ellipse;whiteSpace=wrap;html=1;aspect=fixed;" vertex="1" parent="1">
          <mxGeometry x="480" y="1720" width="80" height="80" as="geometry" />
        </mxCell>
        <mxCell id="sMofJkkiWjKo1fz6Bjdi-65" style="edgeStyle=none;rounded=0;orthogonalLoop=1;jettySize=auto;html=1;exitX=0;exitY=1;exitDx=0;exitDy=0;entryX=0.5;entryY=0;entryDx=0;entryDy=0;fontSize=14;" edge="1" parent="1" source="sMofJkkiWjKo1fz6Bjdi-57" target="sMofJkkiWjKo1fz6Bjdi-58">
          <mxGeometry relative="1" as="geometry" />
        </mxCell>
        <mxCell id="sMofJkkiWjKo1fz6Bjdi-70" style="edgeStyle=none;rounded=0;orthogonalLoop=1;jettySize=auto;html=1;exitX=1;exitY=1;exitDx=0;exitDy=0;entryX=0.5;entryY=0;entryDx=0;entryDy=0;fontSize=14;" edge="1" parent="1" source="sMofJkkiWjKo1fz6Bjdi-57" target="sMofJkkiWjKo1fz6Bjdi-59">
          <mxGeometry relative="1" as="geometry" />
        </mxCell>
        <mxCell id="sMofJkkiWjKo1fz6Bjdi-57" value="5" style="ellipse;whiteSpace=wrap;html=1;aspect=fixed;" vertex="1" parent="1">
          <mxGeometry x="480" y="1850" width="80" height="80" as="geometry" />
        </mxCell>
        <mxCell id="sMofJkkiWjKo1fz6Bjdi-66" style="edgeStyle=none;rounded=0;orthogonalLoop=1;jettySize=auto;html=1;exitX=0;exitY=1;exitDx=0;exitDy=0;entryX=0.5;entryY=0;entryDx=0;entryDy=0;fontSize=14;" edge="1" parent="1" source="sMofJkkiWjKo1fz6Bjdi-58" target="sMofJkkiWjKo1fz6Bjdi-60">
          <mxGeometry relative="1" as="geometry" />
        </mxCell>
        <mxCell id="sMofJkkiWjKo1fz6Bjdi-58" value="6" style="ellipse;whiteSpace=wrap;html=1;aspect=fixed;" vertex="1" parent="1">
          <mxGeometry x="355" y="1960" width="80" height="80" as="geometry" />
        </mxCell>
        <mxCell id="sMofJkkiWjKo1fz6Bjdi-68" style="edgeStyle=none;rounded=0;orthogonalLoop=1;jettySize=auto;html=1;exitX=0.5;exitY=1;exitDx=0;exitDy=0;entryX=0.5;entryY=0;entryDx=0;entryDy=0;fontSize=14;" edge="1" parent="1" source="sMofJkkiWjKo1fz6Bjdi-59" target="sMofJkkiWjKo1fz6Bjdi-62">
          <mxGeometry relative="1" as="geometry" />
        </mxCell>
        <mxCell id="sMofJkkiWjKo1fz6Bjdi-69" style="edgeStyle=none;rounded=0;orthogonalLoop=1;jettySize=auto;html=1;exitX=0.5;exitY=1;exitDx=0;exitDy=0;entryX=0.5;entryY=0;entryDx=0;entryDy=0;fontSize=14;" edge="1" parent="1" source="sMofJkkiWjKo1fz6Bjdi-59" target="sMofJkkiWjKo1fz6Bjdi-63">
          <mxGeometry relative="1" as="geometry" />
        </mxCell>
        <mxCell id="sMofJkkiWjKo1fz6Bjdi-59" value="8" style="ellipse;whiteSpace=wrap;html=1;aspect=fixed;" vertex="1" parent="1">
          <mxGeometry x="595" y="1960" width="80" height="80" as="geometry" />
        </mxCell>
        <mxCell id="sMofJkkiWjKo1fz6Bjdi-67" style="edgeStyle=none;rounded=0;orthogonalLoop=1;jettySize=auto;html=1;exitX=0.5;exitY=1;exitDx=0;exitDy=0;entryX=0.5;entryY=0;entryDx=0;entryDy=0;fontSize=14;" edge="1" parent="1" source="sMofJkkiWjKo1fz6Bjdi-60" target="sMofJkkiWjKo1fz6Bjdi-61">
          <mxGeometry relative="1" as="geometry" />
        </mxCell>
        <mxCell id="sMofJkkiWjKo1fz6Bjdi-60" value="7" style="ellipse;whiteSpace=wrap;html=1;aspect=fixed;" vertex="1" parent="1">
          <mxGeometry x="240" y="2080" width="80" height="80" as="geometry" />
        </mxCell>
        <mxCell id="sMofJkkiWjKo1fz6Bjdi-61" value="11" style="ellipse;whiteSpace=wrap;html=1;aspect=fixed;" vertex="1" parent="1">
          <mxGeometry x="200" y="2240" width="80" height="80" as="geometry" />
        </mxCell>
        <mxCell id="sMofJkkiWjKo1fz6Bjdi-86" style="edgeStyle=none;rounded=0;orthogonalLoop=1;jettySize=auto;html=1;exitX=1;exitY=0.5;exitDx=0;exitDy=0;entryX=0;entryY=0.5;entryDx=0;entryDy=0;fontSize=14;" edge="1" parent="1" source="sMofJkkiWjKo1fz6Bjdi-62" target="sMofJkkiWjKo1fz6Bjdi-63">
          <mxGeometry relative="1" as="geometry" />
        </mxCell>
        <mxCell id="sMofJkkiWjKo1fz6Bjdi-62" value="9" style="ellipse;whiteSpace=wrap;html=1;aspect=fixed;" vertex="1" parent="1">
          <mxGeometry x="540" y="2080" width="80" height="80" as="geometry" />
        </mxCell>
        <mxCell id="sMofJkkiWjKo1fz6Bjdi-87" style="edgeStyle=none;rounded=0;orthogonalLoop=1;jettySize=auto;html=1;exitX=1;exitY=0.5;exitDx=0;exitDy=0;entryX=0.993;entryY=0.787;entryDx=0;entryDy=0;entryPerimeter=0;fontSize=14;" edge="1" parent="1" source="sMofJkkiWjKo1fz6Bjdi-63" target="sMofJkkiWjKo1fz6Bjdi-52">
          <mxGeometry relative="1" as="geometry">
            <Array as="points">
              <mxPoint x="960" y="2120" />
              <mxPoint x="960" y="1783" />
            </Array>
          </mxGeometry>
        </mxCell>
        <mxCell id="sMofJkkiWjKo1fz6Bjdi-63" value="10" style="ellipse;whiteSpace=wrap;html=1;aspect=fixed;" vertex="1" parent="1">
          <mxGeometry x="720" y="2080" width="80" height="80" as="geometry" />
        </mxCell>
        <mxCell id="sMofJkkiWjKo1fz6Bjdi-71" value="&lt;table data-tagsearch-path=&quot;src/com/jwetherell/algorithms/mathematics/GreatestCommonDivisor.java&quot; data-tagsearch-lang=&quot;Java&quot; data-paste-markdown-skip=&quot;&quot; data-tab-size=&quot;8&quot; class=&quot;highlight tab-size js-file-line-container js-code-nav-container js-tagsearch-file&quot; data-hpc=&quot;&quot;&gt;&lt;tbody&gt;&lt;tr&gt;&lt;td class=&quot;blob-code blob-code-inner js-file-line&quot; id=&quot;LC36&quot;&gt;&lt;span class=&quot;pl-smi&quot;&gt;long&lt;/span&gt; &lt;span class=&quot;pl-s1&quot;&gt;greater&lt;/span&gt; = &lt;span class=&quot;pl-s1&quot;&gt;x&lt;/span&gt;;&lt;/td&gt;&#xa;        &lt;/tr&gt;&#xa;        &lt;tr&gt;&#xa;          &lt;/tr&gt;&lt;/tbody&gt;&lt;/table&gt;        &lt;span class=&quot;pl-smi&quot;&gt;long&lt;/span&gt; &lt;span class=&quot;pl-s1&quot;&gt;smaller&lt;/span&gt; = &lt;span class=&quot;pl-s1&quot;&gt;y&lt;/span&gt;;" style="text;html=1;strokeColor=none;fillColor=none;align=center;verticalAlign=middle;whiteSpace=wrap;rounded=0;fontSize=14;" vertex="1" parent="1">
          <mxGeometry x="480" y="1430" width="180" height="30" as="geometry" />
        </mxCell>
        <mxCell id="sMofJkkiWjKo1fz6Bjdi-72" value="&lt;span class=&quot;pl-s1&quot;&gt;y&lt;/span&gt; &amp;gt; &lt;span class=&quot;pl-s1&quot;&gt;x&lt;/span&gt;" style="text;html=1;strokeColor=none;fillColor=none;align=center;verticalAlign=middle;whiteSpace=wrap;rounded=0;fontSize=14;" vertex="1" parent="1">
          <mxGeometry x="250" y="1510" width="60" height="30" as="geometry" />
        </mxCell>
        <mxCell id="sMofJkkiWjKo1fz6Bjdi-73" value="&lt;span class=&quot;pl-s1&quot;&gt;y&lt;/span&gt; &amp;lt;= &lt;span class=&quot;pl-s1&quot;&gt;x&lt;/span&gt;" style="text;html=1;strokeColor=none;fillColor=none;align=center;verticalAlign=middle;whiteSpace=wrap;rounded=0;fontSize=14;" vertex="1" parent="1">
          <mxGeometry x="530" y="1510" width="60" height="30" as="geometry" />
        </mxCell>
        <mxCell id="sMofJkkiWjKo1fz6Bjdi-74" value="&lt;table data-tagsearch-path=&quot;src/com/jwetherell/algorithms/mathematics/GreatestCommonDivisor.java&quot; data-tagsearch-lang=&quot;Java&quot; data-paste-markdown-skip=&quot;&quot; data-tab-size=&quot;8&quot; class=&quot;highlight tab-size js-file-line-container js-code-nav-container js-tagsearch-file&quot; data-hpc=&quot;&quot;&gt;&lt;tbody&gt;&lt;tr&gt;&lt;td class=&quot;blob-code blob-code-inner js-file-line&quot; id=&quot;LC39&quot;&gt; &lt;span class=&quot;pl-s1&quot;&gt;greater&lt;/span&gt; = &lt;span class=&quot;pl-s1&quot;&gt;y&lt;/span&gt;;&lt;/td&gt;&#xa;        &lt;/tr&gt;&#xa;        &lt;tr&gt;&#xa;          &lt;/tr&gt;&lt;/tbody&gt;&lt;/table&gt;            &lt;span class=&quot;pl-s1&quot;&gt;smaller&lt;/span&gt; = &lt;span class=&quot;pl-s1&quot;&gt;x&lt;/span&gt;;" style="text;html=1;strokeColor=none;fillColor=none;align=center;verticalAlign=middle;whiteSpace=wrap;rounded=0;fontSize=14;" vertex="1" parent="1">
          <mxGeometry x="147.5" y="1560" width="155" height="30" as="geometry" />
        </mxCell>
        <mxCell id="sMofJkkiWjKo1fz6Bjdi-75" value="&lt;span class=&quot;pl-smi&quot;&gt;long&lt;/span&gt; &lt;span class=&quot;pl-s1&quot;&gt;result&lt;/span&gt; = &lt;span class=&quot;pl-c1&quot;&gt;0&lt;/span&gt;;" style="text;whiteSpace=wrap;html=1;fontSize=14;" vertex="1" parent="1">
          <mxGeometry x="590" y="1580" width="130" height="40" as="geometry" />
        </mxCell>
        <mxCell id="sMofJkkiWjKo1fz6Bjdi-76" value="true" style="text;whiteSpace=wrap;html=1;fontSize=14;" vertex="1" parent="1">
          <mxGeometry x="590" y="1740" width="130" height="40" as="geometry" />
        </mxCell>
        <mxCell id="sMofJkkiWjKo1fz6Bjdi-77" value="&lt;span class=&quot;pl-s1&quot;&gt;smaller&lt;/span&gt; == &lt;span class=&quot;pl-s1&quot;&gt;greater&lt;/span&gt;" style="text;whiteSpace=wrap;html=1;fontSize=14;" vertex="1" parent="1">
          <mxGeometry x="330" y="1910" width="130" height="40" as="geometry" />
        </mxCell>
        <mxCell id="sMofJkkiWjKo1fz6Bjdi-78" value="&lt;span class=&quot;pl-s1&quot;&gt;! smaller&lt;/span&gt; == &lt;span class=&quot;pl-s1&quot;&gt;greater&lt;/span&gt;" style="text;whiteSpace=wrap;html=1;fontSize=14;" vertex="1" parent="1">
          <mxGeometry x="600" y="1910" width="130" height="40" as="geometry" />
        </mxCell>
        <mxCell id="sMofJkkiWjKo1fz6Bjdi-79" value=" &lt;span class=&quot;pl-s1&quot;&gt;result&lt;/span&gt; = &lt;span class=&quot;pl-s1&quot;&gt;smaller&lt;/span&gt;;" style="text;whiteSpace=wrap;html=1;fontSize=14;" vertex="1" parent="1">
          <mxGeometry x="210" y="1980" width="130" height="40" as="geometry" />
        </mxCell>
        <mxCell id="sMofJkkiWjKo1fz6Bjdi-80" value="break;" style="text;whiteSpace=wrap;html=1;fontSize=14;" vertex="1" parent="1">
          <mxGeometry x="140" y="2100" width="130" height="40" as="geometry" />
        </mxCell>
        <mxCell id="sMofJkkiWjKo1fz6Bjdi-81" value="return result;" style="text;whiteSpace=wrap;html=1;fontSize=14;" vertex="1" parent="1">
          <mxGeometry x="80" y="2260" width="130" height="40" as="geometry" />
        </mxCell>
        <mxCell id="sMofJkkiWjKo1fz6Bjdi-82" value="&lt;span class=&quot;pl-s1&quot;&gt;greater&lt;/span&gt; -= &lt;span class=&quot;pl-s1&quot;&gt;smaller&lt;/span&gt;;" style="text;whiteSpace=wrap;html=1;fontSize=14;" vertex="1" parent="1">
          <mxGeometry x="705" y="1970" width="130" height="40" as="geometry" />
        </mxCell>
        <mxCell id="sMofJkkiWjKo1fz6Bjdi-83" value="&lt;span class=&quot;pl-s1&quot;&gt;smaller&lt;/span&gt; &amp;gt; &lt;span class=&quot;pl-s1&quot;&gt;greater&lt;/span&gt;" style="text;whiteSpace=wrap;html=1;fontSize=14;" vertex="1" parent="1">
          <mxGeometry x="465" y="2040" width="130" height="40" as="geometry" />
        </mxCell>
        <mxCell id="sMofJkkiWjKo1fz6Bjdi-84" value="&lt;span class=&quot;pl-s1&quot;&gt;smaller&lt;/span&gt; &amp;lt;= &lt;span class=&quot;pl-s1&quot;&gt;greater&lt;/span&gt;" style="text;whiteSpace=wrap;html=1;fontSize=14;" vertex="1" parent="1">
          <mxGeometry x="720" y="2040" width="130" height="40" as="geometry" />
        </mxCell>
        <mxCell id="sMofJkkiWjKo1fz6Bjdi-85" value="&lt;br&gt;&lt;br&gt;&lt;br&gt;&lt;table data-tagsearch-path=&quot;src/com/jwetherell/algorithms/mathematics/GreatestCommonDivisor.java&quot; data-tagsearch-lang=&quot;Java&quot; data-paste-markdown-skip=&quot;&quot; data-tab-size=&quot;8&quot; class=&quot;highlight tab-size js-file-line-container js-code-nav-container js-tagsearch-file&quot; data-hpc=&quot;&quot;&gt;&lt;tbody&gt;&lt;tr&gt;&lt;td class=&quot;blob-code blob-code-inner js-file-line&quot; id=&quot;LC52&quot;&gt; &lt;span class=&quot;pl-smi&quot;&gt;long&lt;/span&gt; &lt;span class=&quot;pl-s1&quot;&gt;temp&lt;/span&gt; = &lt;span class=&quot;pl-s1&quot;&gt;smaller&lt;/span&gt;;&lt;/td&gt;        &lt;/tr&gt;        &lt;tr&gt;          &lt;/tr&gt;&lt;/tbody&gt;&lt;/table&gt;&lt;table data-tagsearch-path=&quot;src/com/jwetherell/algorithms/mathematics/GreatestCommonDivisor.java&quot; data-tagsearch-lang=&quot;Java&quot; data-paste-markdown-skip=&quot;&quot; data-tab-size=&quot;8&quot; class=&quot;highlight tab-size js-file-line-container js-code-nav-container js-tagsearch-file&quot; data-hpc=&quot;&quot;&gt;&lt;tbody&gt;&lt;tr&gt;&lt;td class=&quot;blob-code blob-code-inner js-file-line&quot; id=&quot;LC53&quot;&gt;                &lt;span class=&quot;pl-s1&quot;&gt;smaller&lt;/span&gt; = &lt;span class=&quot;pl-s1&quot;&gt;greater&lt;/span&gt;;&lt;/td&gt;        &lt;/tr&gt;        &lt;tr&gt;          &lt;/tr&gt;&lt;/tbody&gt;&lt;/table&gt;                &lt;span class=&quot;pl-s1&quot;&gt;greater&lt;/span&gt; = &lt;span class=&quot;pl-s1&quot;&gt;temp&lt;/span&gt;;" style="text;whiteSpace=wrap;html=1;fontSize=14;" vertex="1" parent="1">
          <mxGeometry x="400" y="2040" width="140" height="40" as="geometry" />
        </mxCell>
      </root>
    </mxGraphModel>
  </diagram>
</mxfile>
